<svg xmlns="http://www.w3.org/2000/svg" width="129" height="26" viewBox="0 0 129 26" fill="none">
<path d="M97.4901 15.0646L99.7766 0.806349L97.4293 15.173C97.4497 15.1373 97.4706 15.1012 97.4901 15.0646Z" fill="#61DCAB"/>
<path d="M57.0533 0.00811203C55.9606 -0.0189957 54.8736 0.183896 53.8537 0.605359C54.0684 1.92672 54.0555 3.27911 53.8157 4.5955L53.2466 8.12371L52.6257 11.6504L52.602 11.6717L51.1658 20.4812C50.664 23.4554 51.7388 25.5382 54.6111 25.6222C55.7996 25.6225 56.965 25.2703 57.9786 24.6047C57.7428 23.3094 57.7365 21.9779 57.9602 20.6801L58.4141 17.8581L59.263 13.0174L59.3299 12.6389L60.6105 4.79547C61.1104 1.82081 59.9252 0.0920558 57.0533 0.00811203Z" fill="#61DCAB"/>
<path d="M23.6025 11.2886C23.8106 10.0495 23.9083 8.792 23.8942 7.53305C23.8264 3.96722 22.6065 1.53893 20.4081 0.530588C19.5835 0.16716 18.6985 -0.0123383 17.8071 0.00302008C17.049 0.00563376 16.2952 0.12435 15.5684 0.355581C13.4663 1.01339 11.4083 2.57218 9.3712 4.84528L8.49422 10.7045C10.4863 7.91608 12.6059 6.49772 14.8972 6.49772C16.0104 6.49772 16.6702 7.01815 16.9068 8.14147C17.061 9.18751 17.0288 10.2554 16.812 11.2886L15.308 20.528C14.761 23.9499 15.9002 25.6608 18.7258 25.6608C19.9685 25.715 21.2004 25.393 22.2806 24.7318C21.8248 23.8028 21.7793 22.2898 22.0985 20.2833L23.6025 11.2886Z" fill="#61DCAB"/>
<path d="M46.3759 0.000480016C45.2759 -0.011573 44.184 0.203463 43.1597 0.633872C43.295 1.52857 43.311 2.43938 43.2071 3.3389C43.2161 3.85341 43.1683 4.36727 43.0648 4.86975L42.8818 5.83639L42.6788 7.91002C42.7366 8.07027 42.3321 10.174 42.3828 10.3373L41.6078 14.3951C41.5392 14.5508 41.4674 14.7046 41.3925 14.8565L40.5164 20.1638C40.481 20.3877 40.4494 20.6054 40.4216 20.817C40.4363 20.7783 40.4519 20.7402 40.4662 20.7016C40.2385 22.3148 40.3751 23.5368 40.922 24.3188C41.4688 25.1501 42.4302 25.6191 43.8432 25.6191C45.1058 25.6483 46.351 25.2997 47.4393 24.6123C46.9835 23.6833 46.938 22.1703 47.2567 20.1638L49.6215 5.83639L49.8046 4.86975C50.3776 1.95258 49.2459 0.0788276 46.3759 0.000480016Z" fill="#61DCAB"/>
<path d="M81.3307 1.10294C80.7027 0.385605 79.7039 0.022842 78.3388 0.022842C77.5647 0.0198139 76.7955 0.154071 76.0622 0.420179C74.2941 1.06527 72.7388 2.49644 71.4141 4.71611C71.5635 3.85124 71.0223 6.55673 71.0223 6.55673C71.0223 6.55673 71.1333 5.61252 71.1314 5.61201L70.7657 7.85966L70.4811 10.1109C72.0714 8.03062 73.9777 7.01362 76.2899 7.01362C77.3943 6.98215 78.4802 7.32247 79.3951 7.98685C79.7476 8.2528 80.0664 8.56658 80.3437 8.92038C80.741 8.3833 81.0826 7.80141 81.3625 7.18503C81.8645 6.0814 82.1241 4.86909 82.1213 3.6411C82.1749 2.71704 81.8914 1.80684 81.3307 1.10294Z" fill="#61DCAB"/>
<path d="M103.415 19.8067L106.651 0.00254624H99.908L99.7766 0.806349L97.4901 15.0646C97.4706 15.1012 97.4497 15.1373 97.4293 15.173L96.67 19.8061C96.6372 20.0096 96.6092 20.2132 96.5841 20.4136C96.5964 20.3902 96.6092 20.3673 96.6216 20.3434C96.3939 21.9566 96.5305 23.1786 97.0774 23.9606C97.4304 24.4754 97.8914 24.894 98.423 25.1826C98.9547 25.4711 99.5422 25.6215 100.138 25.6216C101.345 25.4902 102.518 25.1153 103.595 24.5166C103.141 23.5887 103.096 21.8106 103.415 19.8067Z" fill="#61DCAB"/>
<path d="M81.3307 1.10294C80.7027 0.385605 79.7039 0.022842 78.3388 0.022842C77.5647 0.0198139 76.7955 0.154071 76.0622 0.420179C74.2941 1.06527 72.7388 2.49644 71.4141 4.71611C71.5765 3.96902 71.5684 3.19084 71.3894 2.4481C71.2916 2.10492 71.1318 1.78575 70.9189 1.50891C70.5237 1.05608 70.0445 0.696976 69.5122 0.454708C68.9799 0.212441 68.4061 0.0923675 67.8279 0.10221C66.7165 0.0686114 65.6078 0.238616 64.5496 0.604874C64.8056 2.00862 64.8306 3.44961 64.6236 4.86261L64.4998 5.61301H64.4941L64.1289 7.86065L62.3393 18.694L62.3332 18.7042C62.2217 19.3432 62.1155 19.9842 61.9708 20.614L61.9846 20.5921C61.7564 21.9118 61.8508 23.3857 62.4888 24.217C62.9569 24.8204 63.7063 25.6237 65.5394 25.6237C66.6939 25.6755 67.8268 25.278 68.7296 24.5045C68.626 23.9462 68.576 23.378 68.5802 22.8088C68.5866 22.0173 68.6518 21.2275 68.7751 20.4471V20.4375H68.7827L69.2684 17.4481L70.4811 10.1109C72.0714 8.03062 73.9777 7.01362 76.2899 7.01362C77.3943 6.98215 78.4802 7.32247 79.3951 7.98685C79.7476 8.2528 80.0664 8.56658 80.3437 8.92038C80.741 8.3833 81.0826 7.80141 81.3625 7.18503C81.8645 6.0814 82.1241 4.86909 82.1213 3.6411C82.1749 2.71704 81.8914 1.80684 81.3307 1.10294Z" fill="#61DCAB"/>
<path d="M103.415 19.8067L106.651 0.00254624H99.908L99.7766 0.806349L97.4901 15.0646C97.4706 15.1012 97.4497 15.1373 97.4293 15.173C96.0226 17.6897 94.1301 18.9265 91.8387 18.9265C90.4158 18.9265 89.6769 18.2773 89.5019 16.8671C89.4253 15.9537 89.4757 15.0331 89.6513 14.1356L91.2469 4.60316C91.7482 1.6697 90.5629 0.0075766 87.6896 0.0075766C86.6004 0.000468803 85.5188 0.202958 84.4962 0.605383C84.6513 1.47296 84.6899 2.35987 84.6109 3.23918C84.5793 3.67535 84.5271 4.13002 84.4544 4.60316L82.7683 14.8199C81.997 19.8199 83.1525 23.3083 85.7037 24.8036C86.7095 25.3673 87.8319 25.6491 88.9664 25.6227C89.8747 25.6284 90.7775 25.4713 91.6377 25.1582C93.7246 24.3874 95.3737 22.6989 96.5841 20.4136C96.5964 20.3902 96.6092 20.3673 96.6216 20.3434C96.3939 21.9566 96.5305 23.1786 97.0774 23.9606C97.4304 24.4754 97.8914 24.894 98.423 25.1826C98.9547 25.4711 99.5422 25.6215 100.138 25.6216C101.345 25.4902 102.518 25.1153 103.595 24.5166C103.141 23.5887 103.096 21.8106 103.415 19.8067Z" fill="#61DCAB"/>
<path d="M128.246 0.0620412H113.388C113.236 0.0620412 113.088 0.0671675 112.945 0.076325C110.549 0.22895 109.332 1.64884 109.332 4.3386C109.325 5.30299 109.447 6.26347 109.697 7.19013C110.66 6.62183 111.731 6.28994 112.828 6.2184L112.927 6.20878C113.222 6.18436 113.526 6.17198 113.842 6.17164H119.311C119.311 6.17164 116.389 9.0232 113.371 12.3026C111.051 14.823 108.675 17.5936 107.523 19.5202C107.428 19.6825 107.337 19.8392 107.258 19.9883C106.404 21.7231 105.973 23.6612 106.004 25.6227H121.985C122.244 25.6231 122.504 25.6082 122.762 25.5779C124.937 25.3174 126.041 23.9077 126.041 21.3456C126.048 20.382 125.925 19.4224 125.676 18.4966C124.516 19.1658 123.219 19.5136 121.902 19.5085C121.779 19.5126 121.655 19.5152 121.529 19.5152H114.984C114.984 19.5152 117.347 16.7074 120.201 13.4127C122.336 10.9498 124.745 8.21528 126.649 6.17723C126.652 6.17367 126.655 6.1701 126.658 6.16704C128.895 3.75709 128.246 0.0620412 128.246 0.0620412Z" fill="#61DCAB"/>
<path d="M46.3759 0.000480016C45.2759 -0.011573 44.184 0.203463 43.1597 0.633872C43.295 1.52857 43.311 2.43938 43.2071 3.3389C43.1755 3.64687 43.135 3.96213 43.0867 4.28468C42.756 3.15763 42.1237 2.15975 41.2684 1.41519C40.4131 0.670639 39.3726 0.212305 38.2763 0.0971749C37.9304 0.0481277 37.5818 0.0236325 37.2329 0.023893C35.9838 0.0152111 34.7451 0.267478 33.586 0.766648C31.8966 1.53825 30.4101 2.74382 29.2576 4.27704C27.0246 7.1123 25.8848 10.7789 25.8848 15.3251C25.8848 20.1984 27.5515 23.465 30.236 24.8661C31.2685 25.3906 32.3991 25.6551 33.5414 25.6395C34.2315 25.6434 34.9196 25.5596 35.5913 25.3897C36.685 25.1119 37.698 24.5494 38.541 23.752C39.3839 22.9546 40.0279 21.9462 40.4216 20.817C40.4363 20.7783 40.4519 20.7402 40.4662 20.7016C40.2385 22.3148 40.3751 23.5368 40.922 24.3188C41.4688 25.1501 42.4302 25.6191 43.8432 25.6191C45.1058 25.6483 46.351 25.2997 47.4393 24.6123C46.9835 23.6833 46.938 22.1703 47.2567 20.1638L49.6215 5.83639L49.8046 4.86975C50.3776 1.95258 49.2459 0.0788276 46.3759 0.000480016ZM41.6078 14.3951C41.5392 14.5508 41.4674 14.7046 41.3925 14.8565C40.1318 17.4308 38.0558 19.482 35.7753 19.482C34.637 19.482 33.6695 18.6599 33.1567 17.1825C32.8851 16.351 32.7533 15.4744 32.7674 14.5935C32.7674 11.8366 33.5044 9.61687 34.6589 8.15117C35.1036 7.54898 35.6674 7.06022 36.3097 6.72018C36.9519 6.38014 37.6565 6.1973 38.3726 6.18485C40.2285 6.18485 41.4982 7.85964 42.2192 9.85292C42.2773 10.0137 42.3316 10.1738 42.3828 10.3373L41.6078 14.3951Z" fill="#61DCAB"/>
<path d="M23.6025 11.2886C23.8106 10.0495 23.9083 8.792 23.8942 7.53305C23.8264 3.96722 22.6065 1.53893 20.4081 0.530588C19.5835 0.16716 18.6985 -0.0123383 17.8071 0.00302008C17.049 0.00563376 16.2952 0.12435 15.5684 0.355581C13.4663 1.01339 11.4083 2.57218 9.3712 4.84528L9.29045 4.9351C9.51812 3.6154 9.54515 2.34042 8.90722 1.51116C8.34518 0.80756 7.78313 0.00428699 5.90966 0.00428699C4.76442 0.000195199 3.62681 0.203997 2.54499 0.607124C2.75642 2.09228 2.7404 3.60453 2.49756 5.08415L1.31988 12.9626C1.31988 12.9626 1.32462 12.9626 1.32984 12.9652L0.131765 20.3258C-0.4151 23.7482 0.742184 25.6219 3.56805 25.6219C4.81963 25.6248 6.04622 25.2462 7.10489 24.5301C6.64909 23.6011 6.60355 22.0881 6.92276 20.0816L8.42676 11.0869C8.44668 10.9627 8.46549 10.8396 8.4832 10.7175L8.49422 10.7045C10.4863 7.91608 12.6059 6.49772 14.8972 6.49772C16.0104 6.49772 16.6702 7.01815 16.9068 8.14147C17.061 9.18751 17.0288 10.2554 16.812 11.2886L15.308 20.528C14.761 23.9499 15.9002 25.6608 18.7258 25.6608C19.9685 25.715 21.2004 25.393 22.2806 24.7318C21.8248 23.8028 21.7793 22.2898 22.0985 20.2833L23.6025 11.2886Z" fill="#61DCAB"/>
<path d="M57.0533 0.00811203C55.9606 -0.0189957 54.8736 0.183896 53.8537 0.605359C54.0684 1.92672 54.0555 3.27911 53.8157 4.5955L53.2466 8.12371L52.6257 11.6504L52.602 11.6717L51.1658 20.4812C50.664 23.4554 51.7388 25.5382 54.6111 25.6222C55.7996 25.6225 56.965 25.2703 57.9786 24.6047C57.7428 23.3094 57.7365 21.9779 57.9602 20.6801L58.4141 17.8581L59.263 13.0174L59.3299 12.6389L60.6105 4.79547C61.1104 1.82081 59.9252 0.0920558 57.0533 0.00811203Z" fill="#61DCAB"/>
<path d="M126.649 6.17723C126.652 6.17367 126.655 6.1701 126.658 6.16704L120.668 6.164L119.311 6.17164C119.311 6.17164 116.389 9.0232 113.371 12.3026C111.051 14.823 108.675 17.5936 107.523 19.5202L120.511 19.5202L120.518 19.5126L114.984 19.5152C114.984 19.5152 117.347 16.7074 120.201 13.4127C122.336 10.9498 124.745 8.21528 126.649 6.17723Z" fill="#61DCAB"/>
</svg>